<?xml version="1.0" standalone="no"?>
<!DOCTYPE svg PUBLIC "-//W3C//DTD SVG 20010904//EN"
 "http://www.w3.org/TR/2001/REC-SVG-20010904/DTD/svg10.dtd">
<svg version="1.0" xmlns="http://www.w3.org/2000/svg"
 width="500.000000pt" height="500.000000pt" viewBox="0 0 500.000000 500.000000"
 preserveAspectRatio="xMidYMid meet">

<g transform="translate(0.000000,500.000000) scale(0.100000,-0.100000)"
fill="#000000" stroke="none">
<path d="M3400 4863 c-132 -6 -284 -24 -319 -39 -20 -8 -67 -22 -104 -30 -38
-8 -92 -25 -121 -39 -29 -14 -60 -25 -68 -25 -8 0 -32 -11 -52 -25 -20 -14
-41 -25 -47 -25 -11 0 -47 -19 -71 -38 -9 -8 -30 -21 -46 -30 -52 -30 -116
-74 -138 -96 -12 -11 -30 -28 -40 -37 -33 -29 -123 -133 -148 -171 -81 -122
-126 -273 -126 -418 0 -60 31 -203 52 -245 50 -94 215 -317 266 -359 36 -29
43 -59 32 -134 -17 -115 -27 -139 -96 -211 -67 -72 -80 -97 -42 -85 19 6 177
74 353 152 88 39 189 41 320 7 153 -39 271 -49 520 -41 242 7 399 25 489 56
33 11 63 20 69 20 29 0 296 128 362 174 28 19 67 47 88 61 21 14 69 56 106 93
136 134 242 338 254 489 7 90 -7 234 -27 270 -8 16 -21 47 -30 69 -53 146
-233 335 -416 439 -25 14 -52 29 -60 34 -32 20 -147 70 -175 77 -16 4 -41 13
-55 20 -58 31 -276 75 -415 84 -135 9 -173 10 -315 3z m520 -82 c239 -49 347
-94 561 -235 74 -48 231 -215 271 -286 90 -164 114 -348 65 -498 -27 -83 -86
-202 -113 -229 -7 -8 -14 -18 -14 -23 0 -14 -169 -179 -201 -195 -16 -9 -29
-19 -29 -23 0 -5 -19 -18 -42 -30 -55 -29 -94 -51 -139 -78 -20 -12 -59 -29
-87 -37 -28 -9 -61 -22 -74 -30 -21 -14 -103 -38 -253 -72 -97 -23 -392 -36
-540 -25 -116 9 -298 43 -380 72 -96 33 -101 33 -159 5 -30 -15 -61 -27 -69
-27 -8 0 -35 -11 -62 -25 -26 -14 -67 -28 -90 -32 -37 -5 -45 -2 -54 15 -9 17
-6 33 11 79 12 32 22 82 22 110 l1 53 -102 100 c-111 110 -162 179 -211 283
-44 94 -56 167 -50 305 5 108 8 124 42 201 67 153 184 287 344 394 153 103
290 160 517 218 150 38 281 49 510 44 149 -4 205 -10 325 -34z"/>
<path d="M3501 4369 c-74 -37 -114 -89 -109 -141 5 -54 37 -50 83 11 24 31 53
56 77 66 48 19 128 19 173 1 64 -27 89 -127 51 -199 -23 -41 -49 -55 -125 -68
-55 -9 -109 -45 -93 -61 5 -5 46 -13 90 -17 73 -8 86 -12 126 -45 37 -30 46
-44 52 -81 10 -68 -2 -109 -40 -143 -62 -54 -188 -65 -259 -24 -15 9 -39 34
-54 55 -23 34 -31 38 -62 35 -32 -3 -36 -6 -33 -28 4 -40 54 -93 121 -127 56
-30 72 -33 146 -33 75 0 90 3 145 33 86 44 123 96 128 181 5 77 -10 110 -73
161 -54 44 -57 70 -16 117 67 77 78 132 42 215 -37 83 -113 123 -236 123 -60
0 -82 -5 -134 -31z"/>
<path d="M3132 4098 c-17 -17 -15 -54 3 -71 24 -24 69 -7 73 27 2 16 0 32 -5
36 -16 15 -60 19 -71 8z"/>
<path d="M3134 3643 c-13 -20 0 -68 19 -76 23 -8 56 12 63 38 8 31 -1 43 -41
50 -22 5 -33 2 -41 -12z"/>
<path d="M1057 2577 c-7 -4 -34 -7 -62 -7 -68 0 -299 -31 -303 -42 -2 -4 -15
-8 -29 -8 -19 0 -24 -4 -19 -16 3 -9 6 -22 6 -30 0 -8 5 -13 12 -12 8 2 15
-20 20 -62 4 -36 15 -101 24 -145 9 -44 18 -91 20 -105 2 -14 10 -43 18 -65
11 -30 12 -53 5 -89 -5 -27 -7 -52 -4 -54 3 -3 19 7 35 23 l30 29 43 -42 c46
-45 64 -54 47 -23 -17 34 -11 41 20 23 26 -14 32 -15 39 -3 8 12 13 12 36 -3
26 -17 27 -20 20 -79 -10 -83 -31 -138 -62 -163 -22 -18 -27 -31 -31 -84 -5
-67 -93 -354 -133 -432 -12 -24 -48 -81 -79 -128 -68 -100 -90 -142 -90 -168
0 -34 89 -106 175 -141 44 -18 100 -44 124 -58 l44 -25 -4 123 -4 124 53 3
c30 2 59 -2 67 -8 20 -17 26 14 16 83 -18 115 -25 297 -12 297 12 0 92 -43
119 -63 10 -8 10 -13 0 -25 -11 -13 -10 -14 9 -8 36 12 40 -15 21 -147 -14
-96 -15 -128 -6 -151 10 -25 9 -31 -7 -42 -10 -8 -40 -14 -66 -14 -41 0 -49 3
-55 22 l-7 23 -10 -25 c-13 -33 -9 -91 7 -110 7 -8 16 -41 19 -74 5 -51 3 -61
-16 -80 -13 -13 -31 -27 -41 -33 -11 -6 -16 -15 -12 -22 8 -13 124 -5 140 10
5 4 10 45 12 91 2 46 8 92 13 103 5 11 15 41 21 68 7 26 16 50 21 52 4 3 23
-2 42 -11 28 -13 37 -25 42 -53 4 -20 14 -47 22 -61 12 -18 17 -52 17 -129 l2
-105 31 -9 c35 -10 90 10 85 32 -13 59 -17 193 -7 237 7 31 9 32 68 36 34 3
67 3 74 1 7 -3 13 -29 15 -61 l3 -57 39 -3 c57 -5 82 4 127 45 104 94 98 127
-105 561 -42 90 -81 187 -87 215 -5 29 -16 125 -23 215 -7 89 -16 165 -20 169
-3 3 -16 1 -29 -5 -12 -6 -48 -16 -81 -21 -47 -9 -62 -8 -80 4 -46 33 -15 105
44 105 18 0 30 5 30 13 0 16 67 50 81 42 12 -8 11 -33 -6 -80 -8 -21 -13 -41
-11 -42 2 -2 14 6 28 17 14 10 27 17 30 15 3 -3 25 13 50 35 53 46 58 48 58
18 0 -20 1 -21 20 -3 11 10 23 15 27 12 4 -4 17 3 30 15 l23 21 25 -23 25 -23
6 31 c7 37 13 38 56 16 29 -15 31 -15 23 2 -40 93 -48 134 -53 288 -4 133 -7
156 -18 142 -7 -11 -13 -47 -13 -85 -1 -74 -10 -141 -21 -156 -4 -5 -10 -21
-13 -35 -16 -65 -143 -81 -166 -21 -6 14 -15 33 -20 41 -16 27 -31 86 -35 137
-7 83 -17 147 -26 168 -4 11 -11 28 -14 37 -4 13 -16 17 -48 17 -24 0 -63 2
-88 5 -73 9 -331 12 -343 3z m240 -66 c18 -14 33 -29 33 -33 0 -3 -15 -9 -32
-13 -18 -4 -44 -14 -56 -22 -37 -23 -38 -15 -6 95 4 15 13 11 61 -27z m-354
-51 c4 -16 0 -20 -19 -20 -26 0 -30 10 -12 28 17 17 25 15 31 -8z m501 -46
c64 -34 86 -51 86 -65 0 -11 -4 -18 -9 -14 -21 13 -115 24 -155 19 -53 -8
-107 -46 -89 -65 9 -9 18 -7 39 10 39 31 57 28 49 -8 -5 -22 0 -35 20 -60 37
-43 73 -42 115 5 l31 36 -7 -38 c-11 -61 -32 -115 -59 -150 -14 -18 -25 -35
-25 -38 0 -7 61 15 88 32 12 8 22 10 22 5 0 -14 -93 -70 -140 -84 -25 -7 -49
-16 -55 -20 -20 -14 -158 -31 -201 -24 -74 11 -152 34 -210 61 -58 27 -73 48
-25 34 41 -12 47 0 10 22 -19 12 -40 39 -56 75 -23 50 -24 57 -9 65 13 7 14
13 5 29 -13 24 3 49 32 49 15 0 19 -7 19 -32 1 -66 72 -112 104 -67 9 13 16
31 16 41 0 10 2 18 5 18 3 0 27 -22 53 -50 51 -53 74 -63 65 -29 -6 20 -5 20
28 1 38 -21 129 -46 137 -37 3 3 -14 24 -37 48 -50 48 -101 132 -101 164 0 47
21 72 79 92 31 11 63 20 72 20 9 1 56 -20 103 -45z m-477 -5 c7 -6 13 -17 13
-25 0 -7 10 -30 22 -50 l22 -37 -25 6 c-64 18 -97 19 -128 3 -26 -14 -32 -15
-37 -3 -6 17 20 84 44 110 18 20 62 18 89 -4z m161 -465 c23 -4 42 -9 42 -13
0 -3 -14 -21 -30 -39 -24 -25 -35 -31 -55 -26 -13 3 -27 15 -30 25 -4 10 -10
19 -14 19 -6 0 -7 26 -2 49 1 2 11 1 24 -2 12 -4 41 -9 65 -13z m102 -47 c0
-4 0 -12 0 -18 0 -7 -10 -9 -26 -5 -23 6 -24 5 -14 -13 6 -11 16 -18 23 -16 6
3 17 -6 24 -20 6 -14 7 -25 2 -25 -5 0 -9 5 -9 12 0 6 -11 1 -24 -12 -37 -34
-56 -21 -56 39 0 37 5 53 18 60 18 11 63 10 62 -2z m70 -22 c-7 -8 -17 -15
-23 -15 -5 0 -2 9 8 20 21 23 35 19 15 -5z m29 -32 c9 -10 24 -45 31 -78 8
-33 19 -64 25 -70 17 -15 55 -110 55 -137 0 -33 -18 -48 -59 -49 l-36 -2 35
-6 c30 -5 36 -11 47 -51 22 -72 14 -101 -32 -127 -22 -13 -34 -23 -26 -23 7 0
29 9 47 21 19 11 34 16 34 10 0 -5 -19 -22 -42 -36 -24 -15 -34 -24 -23 -20
51 18 50 22 55 -165 4 -124 10 -183 20 -204 14 -27 13 -29 -15 -52 -24 -19
-37 -23 -65 -18 -46 8 -65 26 -52 50 6 14 0 62 -24 168 -26 114 -31 152 -22
157 17 11 11 15 -47 32 -46 13 -50 17 -47 43 4 32 19 64 30 64 5 0 18 -20 30
-45 26 -53 41 -61 85 -47 l32 10 -39 -1 c-37 -2 -41 1 -68 47 -16 27 -27 54
-25 60 3 6 14 -10 26 -36 14 -30 28 -48 39 -48 11 0 13 3 6 8 -20 13 -48 76
-35 80 19 6 12 39 -9 45 -32 8 -24 41 13 57 l32 13 -35 5 c-19 2 -38 9 -42 15
-12 18 -9 76 4 100 6 12 12 33 12 47 1 18 7 26 24 28 29 4 31 42 1 42 -16 0
-20 5 -17 27 2 18 10 29 23 32 29 5 37 24 17 39 -15 11 -15 14 -2 22 19 13 18
13 39 -7z m-166 -75 c15 -22 16 -23 30 -4 9 12 20 17 31 13 25 -10 19 -27 -10
-27 -21 0 -24 -4 -19 -20 9 -27 -11 -26 -26 2 -7 12 -21 30 -33 40 -17 14 -18
17 -5 18 9 0 23 -10 32 -22z m-14 -33 c17 -20 31 -39 31 -43 0 -4 -31 -39 -70
-77 -65 -64 -71 -68 -95 -57 -35 16 -33 55 5 98 16 19 40 52 52 74 13 22 28
40 34 40 7 0 26 -16 43 -35z m91 -19 c0 -3 -4 -8 -10 -11 -5 -3 -10 -1 -10 4
0 6 5 11 10 11 6 0 10 -2 10 -4z m-44 -71 c-7 -18 -26 -20 -26 -2 0 18 24 41
28 27 2 -6 1 -17 -2 -25z m34 15 c0 -5 -4 -10 -10 -10 -5 0 -10 5 -10 10 0 6
5 10 10 10 6 0 10 -4 10 -10z m-61 -44 c8 -9 8 -21 2 -39 -7 -18 -7 -28 0 -33
8 -4 7 -10 0 -17 -20 -20 -11 -42 22 -57 23 -11 27 -15 15 -18 -10 -2 -18 -8
-18 -13 0 -5 -7 -9 -15 -9 -16 0 -20 -30 -6 -45 11 -13 -15 -75 -31 -75 -19 0
-78 44 -78 58 0 8 9 49 20 92 11 43 17 86 14 95 -4 10 4 27 22 46 31 33 37 35
53 15z m44 -60 c2 -55 -5 -71 -17 -40 -12 31 -3 114 11 100 3 -2 6 -30 6 -60z
m7 -156 c0 -5 -2 -10 -4 -10 -3 0 -8 5 -11 10 -3 6 -1 10 4 10 6 0 11 -4 11
-10z m-20 -34 c0 -11 -40 -96 -45 -96 -14 0 -85 41 -85 50 0 5 16 0 36 -12 36
-21 37 -21 51 -2 8 10 16 29 20 42 4 18 23 33 23 18z"/>
<path d="M1280 2008 c-35 -20 -35 -20 -5 -13 30 6 52 21 44 29 -2 2 -20 -5
-39 -16z"/>
<path d="M1123 2003 c9 -14 47 -24 47 -12 0 5 -4 9 -9 9 -5 0 -17 3 -27 7 -11
4 -15 3 -11 -4z"/>
<path d="M1336 1615 c19 -30 26 -28 17 3 -3 12 -12 22 -19 22 -12 0 -11 -5 2
-25z"/>
<path d="M1278 1623 c6 -2 18 -2 25 0 6 3 1 5 -13 5 -14 0 -19 -2 -12 -5z"/>
<path d="M1840 2514 c0 -8 5 -12 10 -9 6 3 10 10 10 16 0 5 -4 9 -10 9 -5 0
-10 -7 -10 -16z"/>
<path d="M652 2410 c0 -14 2 -19 5 -12 2 6 2 18 0 25 -3 6 -5 1 -5 -13z"/>
<path d="M652 2350 c0 -14 2 -19 5 -12 2 6 2 18 0 25 -3 6 -5 1 -5 -13z"/>
<path d="M650 2288 c0 -9 5 -20 10 -23 13 -8 13 5 0 25 -8 13 -10 13 -10 -2z"/>
<path d="M670 2211 c0 -6 4 -13 10 -16 6 -3 7 1 4 9 -7 18 -14 21 -14 7z"/>
</g>
</svg>
